<svg width="32" height="32" viewBox="0 0 32 32" fill="none" xmlns="http://www.w3.org/2000/svg">
<path fill-rule="evenodd" clip-rule="evenodd" d="M20.204 19.4694C20.203 19.6944 20.15 19.9204 20.049 20.1224L17.294 25.6304C17.045 26.1284 16.544 26.4384 15.987 26.4384C15.43 26.4384 14.929 26.1284 14.68 25.6304L11.925 20.1224C11.824 19.9204 11.77 19.6944 11.77 19.4694C11.77 18.6634 12.426 18.0084 13.232 18.0084H18.742C19.142 18.0084 19.517 18.1664 19.793 18.4544C20.058 18.7284 20.204 19.0894 20.204 19.4694ZM20.2031 12.5461C20.2031 13.3521 19.5481 14.0081 18.7411 14.0081H13.2321C12.4261 14.0081 11.7701 13.3531 11.7701 12.5461C11.7701 12.3211 11.8241 12.0961 11.9251 11.8931L14.6801 6.38808C14.9291 5.89008 15.4301 5.58008 15.9871 5.58008C16.5441 5.58008 17.0451 5.89008 17.2941 6.38808L20.0491 11.8931C20.1501 12.0951 20.2031 12.3211 20.2031 12.5461Z" fill="white"/>
<path fill-rule="evenodd" clip-rule="evenodd" d="M16.3991 25.1833L19.1541 19.6753C19.3071 19.3683 19.0841 19.0083 18.7411 19.0083H13.2321C12.8891 19.0083 12.6661 19.3683 12.8191 19.6753L15.5741 25.1833C15.7441 25.5233 16.2291 25.5233 16.3991 25.1833ZM15.5742 6.83508L12.8192 12.3401C12.6662 12.6471 12.8892 13.0081 13.2322 13.0081H18.7412C19.0842 13.0081 19.3072 12.6471 19.1542 12.3401L16.3992 6.83508C16.2292 6.49508 15.7442 6.49508 15.5742 6.83508Z" fill="black"/>
</svg>
