<svg width="12" height="12" viewBox="0 0 12 12" fill="none" xmlns="http://www.w3.org/2000/svg">
<path d="M1.53484 2.51169H10.4648C11.0531 2.51169 11.585 2.73438 11.9997 3.09046V2.65122C11.9994 2.24424 11.8376 1.85402 11.5498 1.56624C11.262 1.27847 10.8718 1.11667 10.4648 1.11637H6.33751C6.19966 1.11637 6.06571 1.07563 5.95073 0.999167L4.83895 0.257976C4.58701 0.0896659 4.29079 -7.54672e-05 3.98781 0.000122397H1.53484C1.12787 0.000418056 0.737647 0.162219 0.449872 0.449995C0.162097 0.73777 0.00029566 1.12799 0 1.53497V3.09046C0.425371 2.71925 0.970277 2.51377 1.53484 2.51169ZM10.4648 3.34887H1.53484C1.12787 3.34917 0.737647 3.51097 0.449872 3.79875C0.162097 4.08652 0.00029566 4.47674 0 4.88372V10.465C0.00029566 10.8719 0.162097 11.2622 0.449872 11.5499C0.737647 11.8377 1.12787 11.9995 1.53484 11.9998H10.4648C10.8718 11.9995 11.262 11.8377 11.5498 11.5499C11.8376 11.2622 11.9994 10.8719 11.9997 10.465V4.88372C11.9994 4.47674 11.8376 4.08652 11.5498 3.79875C11.262 3.51097 10.8718 3.34917 10.4648 3.34887Z" fill="currentColor"/>
</svg>
