<svg width="18" height="22" viewBox="0 0 18 22" fill="none" xmlns="http://www.w3.org/2000/svg">
<path d="M1.74281 16.9307L0.195801 2.54352C3.71754 5.67395 15.848 4.69569 18.0001 2.54352L16.7873 16.6433C16.5827 19.0218 14.7209 20.9216 12.347 21.1744L12.2115 21.1888C10.1327 21.4101 8.0359 21.4035 5.95854 21.1689C3.73418 20.9178 1.98213 19.1564 1.74281 16.9307Z" fill="#56554D"/>
<path d="M9 0C13.9706 0 18 1.05116 18 2.34783C18 3.64449 13.9706 4.69565 9 4.69565V3.91304C11.4385 3.91304 13.6191 3.65448 15.1665 3.25081C15.946 3.04745 16.5207 2.81823 16.8819 2.59545C17.0694 2.47982 17.1545 2.39473 17.1926 2.34783C17.1545 2.30092 17.0694 2.21584 16.8819 2.1002C16.5207 1.87743 15.946 1.6482 15.1665 1.44485C13.6191 1.04117 11.4385 0.782609 9 0.782609C6.56148 0.782609 4.38092 1.04117 2.83352 1.44485C2.054 1.6482 1.47933 1.87743 1.11812 2.1002C0.930398 2.21599 0.84504 2.30096 0.807065 2.34783C0.84504 2.39469 0.930398 2.47966 1.11812 2.59545C1.47933 2.81823 2.054 3.04745 2.83352 3.25081C4.38092 3.65448 6.56148 3.91304 9 3.91304V4.69565C4.02944 4.69565 0 3.64449 0 2.34783C0 1.05116 4.02944 0 9 0Z" fill="#AAA694"/>
</svg>
