<svg width="26" height="26" viewBox="0 0 26 26" fill="none" xmlns="http://www.w3.org/2000/svg">
<path d="M16.3333 15V14.3333H15.6667V13.6667H16.3333V12.3333H15.6667V11.6667H16.3333V11H17V11.6667H17.6667V14.3333H17V15H16.3333Z" fill="white"/>
<path d="M20.3333 11.6667V14.3333H19.6667V15.6667H19V16.3333H18.3333V17H17.6667V16.3333H17V15.6667H17.6667V15H18.3333V14.3333H19V11.6667H18.3333V11H17.6667V10.3333H17V9.66667H17.6667V9H18.3333V9.66667H19V10.3333H19.6667V11.6667H20.3333Z" fill="white"/>
<path d="M12.3333 6.33325V6.99992H11.6667V7.66659H11V8.33325H10.3333V8.99992H9.66666V9.66659H8.99999V10.3333H5.66666V15.6666H8.99999V16.3333H9.66666V16.9999H10.3333V17.6666H11V18.3333H11.6667V18.9999H12.3333V19.6666H14.3333V6.33325H12.3333ZM13 17.6666H12.3333V16.9999H11.6667V16.3333H11V15.6666H10.3333V14.9999H9.66666V14.3333H6.99999V11.6666H9.66666V10.9999H10.3333V10.3333H11V9.66659H11.6667V8.99992H12.3333V8.33325H13V17.6666Z" fill="white"/>
<rect x="24" y="4" width="2" height="18" fill="#494846"/>
<rect y="4" width="2" height="18" fill="#494846"/>
<rect x="4" y="26" width="2" height="18" transform="rotate(-90 4 26)" fill="#494846"/>
<rect x="4" y="2" width="2" height="18" transform="rotate(-90 4 2)" fill="#494846"/>
<rect x="22" y="22" width="2" height="2" fill="#494846"/>
<rect x="22" y="2" width="2" height="2" fill="#494846"/>
<rect x="2" y="22" width="2" height="2" fill="#494846"/>
<rect x="2" y="2" width="2" height="2" fill="#494846"/>
</svg>
